<svg xmlns="http://www.w3.org/2000/svg"  viewBox="0 0 24 24" width="48px" height="48px"><path d="M 2 0 C 0.895 0 0 0.895 0 2 L 0 22 C 0 23.105 0.895 24 2 24 L 22 24 C 23.105 24 24 23.105 24 22 L 24 2 C 24 0.895 23.105 0 22 0 L 2 0 z M 8.8886719 3.3769531 C 10.373672 3.3749531 11.85875 3.3739531 13.34375 3.3769531 C 15.41075 8.5419531 17.474969 13.707094 19.542969 18.871094 C 19.749969 19.471094 20.435 19.656469 21 19.730469 L 21 20.625 L 12.929688 20.625 L 12.929688 19.744141 C 13.530687 19.697141 14.242453 19.726953 14.689453 19.251953 C 15.042453 18.828953 14.841891 18.251297 14.712891 17.779297 C 14.436891 16.993297 14.108547 16.227219 13.810547 15.449219 L 7.53125 15.449219 C 7.26725 16.177219 7.0136094 16.911859 6.7246094 17.630859 C 6.5416094 18.031859 6.3224219 18.447344 6.3574219 18.902344 C 6.3854219 19.169344 6.5673594 19.401094 6.8183594 19.496094 C 7.2303594 19.669094 7.6820469 19.700563 8.1230469 19.726562 C 8.1260469 20.025562 8.1299531 20.325 8.1269531 20.625 L 3 20.625 L 3 19.730469 C 3.498 19.659469 4.1185469 19.530094 4.3105469 18.996094 C 6.0805469 14.490094 7.8481406 9.9815625 9.6191406 5.4765625 C 9.6721406 5.3805625 9.6622812 5.2727344 9.6132812 5.1777344 C 9.3702812 4.5787344 9.1306719 3.9779531 8.8886719 3.3769531 z M 10.574219 7.4394531 C 9.7852188 9.5504531 8.9787188 11.653141 8.1367188 13.744141 C 9.7937188 13.747141 11.449422 13.745094 13.107422 13.746094 C 12.262422 11.643094 11.419219 9.5414531 10.574219 7.4394531 z"/></svg>